<?xml version="1.0" standalone="no"?>
<!DOCTYPE svg PUBLIC "-//W3C//DTD SVG 20010904//EN"
 "http://www.w3.org/TR/2001/REC-SVG-20010904/DTD/svg10.dtd">
<svg version="1.0" xmlns="http://www.w3.org/2000/svg"
 width="512.000000pt" height="512.000000pt" viewBox="0 0 512.000000 512.000000"
 preserveAspectRatio="xMidYMid meet">
<metadata>
Created by potrace 1.14, written by Peter Selinger 2001-2017
</metadata>
<g transform="translate(0.000000,512.000000) scale(0.100000,-0.100000)"
fill="#000000" stroke="none">
<path d="M723 4549 c-120 -11 -152 -50 -154 -189 -1 -49 -4 -90 -8 -91 -3 0
-13 -2 -21 -3 -8 -2 -44 -6 -79 -10 -75 -8 -202 -58 -236 -92 -13 -13 -27 -24
-30 -24 -12 0 -85 -84 -85 -97 0 -7 -4 -13 -9 -13 -13 0 -59 -111 -81 -196
-19 -77 -20 -113 -19 -1419 1 -1039 4 -1356 14 -1410 17 -94 65 -191 123 -251
56 -58 102 -97 102 -86 0 4 4 2 8 -4 9 -12 97 -54 115 -54 7 0 18 -5 25 -12 7
-7 12 -9 12 -5 0 3 11 2 25 -3 14 -5 53 -12 87 -16 35 -3 66 -8 71 -11 4 -2 7
2 7 9 0 8 3 9 8 3 4 -5 34 -10 67 -10 33 0 63 5 67 10 5 7 8 7 8 0 0 -6 45
-10 115 -10 70 0 115 4 115 10 0 7 3 7 8 0 4 -6 55 -10 117 -10 62 0 113 4
117 10 5 7 8 7 8 0 0 -6 45 -10 115 -10 70 0 115 4 115 10 0 7 3 7 8 0 4 -6
55 -10 117 -10 62 0 113 4 117 10 5 7 8 7 8 0 0 -11 232 -11 250 0 5 3 10 2
10 -2 0 -12 64 -10 72 2 5 7 8 7 8 0 0 -11 50 -12 68 -1 7 4 12 3 12 -1 0 -12
64 -10 72 2 5 7 8 7 8 0 0 -11 50 -12 68 -1 7 4 12 3 12 -1 0 -12 64 -10 72 2
5 7 8 7 8 0 0 -11 50 -12 68 -1 7 4 12 4 12 -1 0 -4 16 -8 35 -8 19 0 35 5 35
10 0 7 3 7 8 0 4 -5 34 -10 67 -10 33 0 63 5 67 10 5 7 8 7 8 0 0 -6 45 -10
115 -10 70 0 115 4 115 10 0 7 3 7 8 0 4 -6 55 -10 117 -10 62 0 113 4 117 10
5 7 8 7 8 0 0 -6 45 -10 115 -10 70 0 115 4 115 10 0 7 3 7 8 0 4 -6 55 -10
117 -10 62 0 113 4 117 10 5 7 8 7 8 0 0 -11 232 -11 250 0 5 3 10 2 10 -2 0
-12 64 -10 72 2 5 7 8 7 8 0 0 -11 50 -12 68 -1 7 4 12 3 12 -1 0 -12 64 -10
72 2 5 7 8 7 8 0 0 -11 50 -12 68 -1 7 4 12 3 12 -1 0 -12 64 -10 72 2 5 7 8
7 8 0 0 -11 50 -12 68 -1 7 4 12 3 12 -1 0 -12 64 -10 72 2 5 6 8 6 8 -2 0 -6
8 -9 18 -7 9 2 62 6 117 8 86 4 140 10 140 16 0 1 13 3 29 5 16 2 32 9 36 15
4 7 10 11 14 10 20 -5 107 51 157 101 52 52 96 118 97 143 0 5 4 12 9 15 13 8
39 92 52 166 14 77 15 2669 1 2766 -9 66 -53 182 -77 207 -6 6 -15 21 -18 32
-4 11 -11 18 -16 15 -5 -4 -9 -1 -9 6 0 14 -40 50 -95 87 -22 15 -42 29 -45
32 -7 7 -66 29 -145 53 l-70 21 -1462 1 c-1456 0 -1463 0 -1464 20 0 11 -2 54
-3 97 -2 51 -8 84 -19 102 -19 29 -56 56 -84 61 -10 2 -20 4 -23 5 -27 7 -230
3 -230 -5 0 -7 -3 -7 -8 0 -4 6 -56 10 -120 10 -68 0 -112 -4 -112 -10 0 -7
-3 -7 -8 0 -4 6 -55 10 -117 10 -62 0 -113 -4 -117 -10 -5 -7 -8 -7 -8 0 0 12
-36 13 -137 4z"/>
</g>
</svg>
